<svg xmlns="http://www.w3.org/2000/svg" width="70" height="70"><path fill-rule="evenodd" fill="#fff" d="M31.253 18.653l17.714 14.762a2.06 2.06 0 0 1 0 3.165L31.253 51.343a2.061 2.061 0 0 1-3.379-1.583V20.235a2.06 2.06 0 0 1 3.379-1.582zm.741 26.709l12.437-10.365-12.437-10.364v20.729zm27.765 14.397c-6.726 6.725-15.733 10.239-24.822 10.239a34.804 34.804 0 0 1-17.106-4.47 2.06 2.06 0 1 1 2.021-3.59c12.018 6.765 27.23 4.673 36.993-5.093 12.047-12.047 12.047-31.648 0-43.695-12.047-12.049-31.649-12.048-43.695 0-12.046 12.047-12.046 31.648 0 43.695a2.06 2.06 0 1 1-2.913 2.914c-13.653-13.654-13.653-35.869 0-49.523 13.654-13.652 35.867-13.653 49.522 0 13.653 13.654 13.653 35.869 0 49.523z"/></svg>