<svg xmlns="http://www.w3.org/2000/svg" width="54" height="44"><defs><filter id="a"><feFlood flood-color="#C7B299" flood-opacity="1" result="floodOut"/><feComposite operator="atop" in="floodOut" in2="SourceGraphic" result="compOut"/><feBlend in="compOut" in2="SourceGraphic"/></filter></defs><g filter="url(#a)"><path fill-rule="evenodd" d="M52.31 40.611H1.691a1.69 1.69 0 0 0-1.688 1.693 1.69 1.69 0 0 0 1.688 1.691H52.31a1.69 1.69 0 0 0 1.688-1.691 1.69 1.69 0 0 0-1.688-1.693zM28.688 6.771V3.387h3.375a1.69 1.69 0 0 0 1.687-1.692A1.69 1.69 0 0 0 32.063.003H21.939a1.69 1.69 0 0 0-1.688 1.692 1.69 1.69 0 0 0 1.688 1.692h3.375s-.013 3.523 0 3.384C11.194 7.649.003 19.463.003 33.843v1.692a1.69 1.69 0 0 0 1.688 1.692H52.31a1.69 1.69 0 0 0 1.688-1.692v-1.692c0-14.38-11.19-26.194-25.31-27.072zM3.378 33.843c0-13.082 10.576-23.688 23.623-23.688s23.622 10.606 23.622 23.688H3.378z"/></g></svg>