<svg xmlns="http://www.w3.org/2000/svg" width="21" height="21"><defs><filter id="a"><feFlood flood-color="#C7B299" flood-opacity="1" result="floodOut"/><feComposite operator="atop" in="floodOut" in2="SourceGraphic" result="compOut"/><feBlend in="compOut" in2="SourceGraphic"/></filter></defs><g filter="url(#a)"><path fill-rule="evenodd" d="M10.5 0C4.702 0 .001 4.7.001 10.499S4.702 20.998 10.5 20.998c5.799 0 10.498-4.7 10.498-10.499S16.299 0 10.5 0zm3.289 10.997L9.25 15.535a.699.699 0 1 1-.99-.99l4.047-4.046L8.26 6.452a.7.7 0 0 1 .99-.99l4.539 4.54a.694.694 0 0 1 .205.497c0 .181-.067.36-.205.498z"/></g></svg>