<svg
 xmlns="http://www.w3.org/2000/svg"
 xmlns:xlink="http://www.w3.org/1999/xlink"
 width="22px" height="22px">
<defs>
<filter id="Filter_0">
    <feFlood flood-color="rgb(209, 209, 209)" flood-opacity="1" result="floodOut" />
    <feComposite operator="atop" in="floodOut" in2="SourceGraphic" result="compOut" />
    <feBlend mode="normal" in="compOut" in2="SourceGraphic" />
</filter>

</defs>
<g filter="url(#Filter_0)">
<path fill-rule="evenodd"  fill="rgb(0, 0, 0)"
 d="M7.583,10.434 L12.355,5.661 C12.642,5.375 13.108,5.375 13.395,5.661 C13.682,5.949 13.682,6.416 13.395,6.702 L9.141,10.957 L13.395,15.211 C13.682,15.498 13.682,15.963 13.395,16.251 C13.108,16.538 12.642,16.538 12.355,16.251 L7.583,11.480 C7.438,11.335 7.366,11.145 7.367,10.957 C7.367,10.767 7.438,10.579 7.583,10.434 ZM10.987,0.026 C17.053,0.026 21.972,4.943 21.972,11.011 C21.972,17.076 17.053,21.995 10.987,21.995 C4.921,21.995 0.003,17.076 0.003,11.011 C0.003,4.943 4.921,0.026 10.987,0.026 ZM10.987,20.523 C16.232,20.523 20.501,16.253 20.501,11.011 C20.501,5.765 16.232,1.497 10.987,1.497 C5.743,1.497 1.475,5.765 1.475,11.011 C1.475,16.253 5.743,20.523 10.987,20.523 Z"/>
</g>
</svg>
