<svg height="24" width="18" xmlns="http://www.w3.org/2000/svg" xmlns:xlink="http://www.w3.org/1999/xlink"><filter id="a"><feFlood flood-color="#fff" result="floodOut"/><feComposite in="floodOut" in2="SourceGraphic" operator="atop" result="compOut"/><feBlend in="compOut" in2="SourceGraphic" mode="normal"/></filter><g filter="url(#a)"><path d="m14.995 2.999h-1.499c0-1.657-2.013-3.001-4.497-3.001-2.485 0-4.498 1.344-4.498 3.001h-1.499c-1.656 0-2.999 1.342-2.999 2.998v14.998c0 1.656 1.343 2.999 2.999 2.999h11.993c1.657 0 2.999-1.343 2.999-2.999v-14.998c0-1.656-1.342-2.998-2.999-2.998zm-5.996-1.501c1.656 0 2.998.464 2.998 1.501h-5.997c0-1.037 1.343-1.501 2.999-1.501zm7.496 19.497c0 .828-.671 1.499-1.5 1.499h-11.993c-.828 0-1.5-.671-1.5-1.499v-1.5h14.993zm0-3h-14.993v-11.998c0-.828.672-1.5 1.5-1.5h1.499v4.501h1.499v-4.501h5.997v4.501h1.499v-4.501h1.499c.829 0 1.5.672 1.5 1.5z" fill-rule="evenodd"/></g></svg>