<svg
 xmlns="http://www.w3.org/2000/svg"
 xmlns:xlink="http://www.w3.org/1999/xlink"
 width="44px" height="44px">
<defs>
<filter id="Filter_0">
    <feFlood flood-color="rgb(199, 178, 153)" flood-opacity="1" result="floodOut" />
    <feComposite operator="atop" in="floodOut" in2="SourceGraphic" result="compOut" />
    <feBlend mode="normal" in="compOut" in2="SourceGraphic" />
</filter>

</defs>
<g filter="url(#Filter_0)">
<path fill-rule="evenodd"  fill="rgb(0, 0, 0)"
 d="M30.250,-0.000 C29.826,-0.000 29.403,0.026 28.982,0.064 C28.828,0.078 28.676,0.100 28.523,0.121 C28.265,0.152 28.010,0.191 27.755,0.238 C27.567,0.272 27.383,0.311 27.203,0.352 C26.992,0.400 26.783,0.456 26.573,0.514 C26.375,0.569 26.177,0.623 25.983,0.686 C25.805,0.744 25.634,0.813 25.459,0.879 C25.000,1.051 24.551,1.245 24.116,1.461 C24.030,1.503 23.940,1.542 23.856,1.588 C23.627,1.709 23.407,1.843 23.184,1.976 C23.063,2.050 22.940,2.120 22.819,2.198 C22.604,2.336 22.397,2.483 22.191,2.632 C22.129,2.677 22.063,2.718 22.000,2.764 C19.623,0.975 16.735,-0.000 13.750,-0.000 C6.168,-0.000 -0.000,6.166 -0.000,13.750 C-0.000,26.195 8.002,37.452 21.406,43.863 C21.594,43.954 21.798,44.000 22.000,44.000 C22.202,44.000 22.405,43.954 22.594,43.863 C35.997,37.452 44.000,26.195 44.000,13.750 C44.000,6.166 37.831,-0.000 30.250,-0.000 ZM22.000,41.097 C9.934,35.108 2.750,24.927 2.750,13.750 C2.750,7.684 7.685,2.750 13.750,2.750 C15.969,2.750 18.118,3.434 19.940,4.683 C17.805,7.107 16.500,10.275 16.500,13.750 C16.500,14.509 17.114,15.125 17.875,15.125 C18.636,15.125 19.250,14.509 19.250,13.750 C19.250,10.476 20.696,7.539 22.973,5.523 C23.184,5.335 23.405,5.157 23.627,4.987 C23.678,4.951 23.728,4.912 23.779,4.874 C23.998,4.715 24.222,4.562 24.452,4.420 C24.515,4.380 24.578,4.341 24.643,4.304 C24.864,4.171 25.091,4.046 25.321,3.931 C25.400,3.891 25.482,3.852 25.562,3.814 C25.783,3.710 26.005,3.611 26.232,3.521 C26.332,3.481 26.434,3.445 26.537,3.408 C26.751,3.331 26.965,3.259 27.183,3.196 C27.316,3.158 27.445,3.125 27.578,3.093 C27.775,3.044 27.970,2.993 28.171,2.953 C28.353,2.920 28.537,2.896 28.719,2.869 C28.875,2.846 29.031,2.820 29.189,2.803 C29.538,2.771 29.893,2.750 30.250,2.750 C36.315,2.750 41.250,7.684 41.250,13.750 C41.250,24.927 34.066,35.108 22.000,41.097 ZM30.250,5.500 C29.490,5.500 28.875,6.116 28.875,6.875 C28.875,7.633 29.490,8.250 30.250,8.250 C33.283,8.250 35.750,10.716 35.750,13.750 C35.750,14.509 36.365,15.125 37.125,15.125 C37.885,15.125 38.500,14.509 38.500,13.750 C38.500,9.200 34.799,5.500 30.250,5.500 Z"/>
</g>
</svg>
