<svg
 xmlns="http://www.w3.org/2000/svg"
 xmlns:xlink="http://www.w3.org/1999/xlink"
 width="44px" height="44px">
<defs>
<filter id="Filter_0">
    <feFlood flood-color="rgb(199, 178, 153)" flood-opacity="1" result="floodOut" />
    <feComposite operator="atop" in="floodOut" in2="SourceGraphic" result="compOut" />
    <feBlend mode="normal" in="compOut" in2="SourceGraphic" />
</filter>

</defs>
<g filter="url(#Filter_0)">
<path fill-rule="evenodd"  fill="rgb(0, 0, 0)"
 d="M28.873,23.374 L15.126,23.374 C14.367,23.374 13.751,23.990 13.751,24.748 C13.751,25.508 14.367,26.124 15.126,26.124 L28.873,26.124 C29.632,26.124 30.248,25.508 30.248,24.748 C30.248,23.990 29.632,23.374 28.873,23.374 ZM31.622,15.126 L12.376,15.126 C11.617,15.126 11.001,15.741 11.001,16.501 C11.001,17.259 11.617,17.875 12.376,17.875 L31.622,17.875 C32.382,17.875 32.997,17.259 32.997,16.501 C32.997,15.741 32.382,15.126 31.622,15.126 ZM21.999,0.003 C9.852,0.003 0.003,8.620 0.003,19.250 C0.003,25.325 3.227,30.733 8.252,34.261 L8.252,43.995 L17.887,38.149 C19.221,38.368 20.593,38.496 21.999,38.496 C34.148,38.496 43.995,29.879 43.995,19.250 C43.995,8.620 34.148,0.003 21.999,0.003 ZM21.999,35.747 C20.393,35.747 18.843,35.560 17.353,35.242 L10.880,39.133 L10.967,32.756 C6.005,29.772 2.753,24.839 2.753,19.250 C2.753,10.139 11.370,2.753 21.999,2.753 C32.629,2.753 41.246,10.139 41.246,19.250 C41.246,28.360 32.629,35.747 21.999,35.747 Z"/>
</g>
</svg>
