<svg height="55.125" viewBox="0 0 63.031 55.125" width="63.031" xmlns="http://www.w3.org/2000/svg" xmlns:xlink="http://www.w3.org/1999/xlink"><filter id="a" filterUnits="userSpaceOnUse" height="55.125" width="63.031" x="376.344" y="40"><feFlood flood-color="#fff" result="flood"/><feComposite in2="SourceGraphic" operator="in" result="composite"/><feBlend in2="SourceGraphic" result="blend"/></filter><path d="m413.108 50.713h-10.508l5.254 9.191zm-11.822.767-5.254 9.191h10.508zm18.39 9.191-5.254-9.191-5.254 9.191zm-10.508 1.529 5.254 9.188 5.254-9.188zm-13.136 0 5.254 9.188 5.254-9.188zm-6.567 9.952h10.506l-5.253-9.187zm36.778 0-5.253-9.187-5.252 9.187h10.5zm-18.389-32.16-5.254 9.19h10.508zm13.136 42.882 5.253-9.188h-10.5zm-26.272 0 5.253-9.188h-10.506zm-11.821.767h10.503l-5.253-9.19zm49.914 0-5.254-9.19-5.254 9.19zm-10.511 1.531 5.254 9.187 5.254-9.187zm-13.135 0 5.254 9.187 5.254-9.187h-10.505zm-21.017 9.187 5.253-9.187h-10.501zm-11.82.769h10.5l-5.254-9.188zm26.269 0h10.508l-5.254-9.188zm13.138 0h10.5l-5.253-9.188zm18.387-9.188-5.252 9.188h10.5z" fill-rule="evenodd" filter="url(#a)" transform="translate(-376.344 -40)"/></svg>