<svg xmlns="http://www.w3.org/2000/svg" width="22" height="22"><defs><filter id="a"><feFlood flood-color="#D1D1D1" flood-opacity="1" result="floodOut"/><feComposite operator="atop" in="floodOut" in2="SourceGraphic" result="compOut"/><feBlend in="compOut" in2="SourceGraphic"/></filter></defs><g filter="url(#a)"><path fill-rule="evenodd" d="M7.583 10.434l4.772-4.773a.737.737 0 0 1 1.04 1.041l-4.254 4.255 4.254 4.254a.736.736 0 0 1-1.04 1.04L7.583 11.48a.733.733 0 0 1-.216-.523c0-.19.071-.378.216-.523zM10.987.026c6.066 0 10.985 4.917 10.985 10.985 0 6.065-4.919 10.984-10.985 10.984S.003 17.076.003 11.011C.003 4.943 4.921.026 10.987.026zm0 20.497c5.245 0 9.514-4.27 9.514-9.512 0-5.246-4.269-9.514-9.514-9.514-5.244 0-9.512 4.268-9.512 9.514 0 5.242 4.268 9.512 9.512 9.512z"/></g></svg>